<?xml version="1.0" standalone="no"?>
<!DOCTYPE svg PUBLIC "-//W3C//DTD SVG 20010904//EN"
 "http://www.w3.org/TR/2001/REC-SVG-20010904/DTD/svg10.dtd">
<svg version="1.0" xmlns="http://www.w3.org/2000/svg"
 width="720.000000pt" height="720.000000pt" viewBox="0 0 720.000000 720.000000"
 preserveAspectRatio="xMidYMid meet">
<metadata>
Created by potrace 1.11, written by Peter Selinger 2001-2013
</metadata>
<g transform="translate(0.000000,720.000000) scale(0.100000,-0.100000)"
fill="#000000" stroke="none">
<path d="M4805 6676 c-165 -96 -486 -284 -615 -359 -464 -269 -485 -283 -567
-368 -102 -107 -161 -210 -193 -341 -12 -45 -23 -89 -25 -96 -3 -9 -23 0 -64
28 -33 22 -70 40 -82 40 -12 0 -72 -16 -133 -36 -129 -42 -193 -46 -252 -16
-81 41 -101 39 -182 -18 -57 -40 -79 -50 -98 -46 -22 6 -24 11 -24 67 0 69 0
69 148 238 75 86 100 131 71 131 -6 0 -44 -25 -84 -55 -155 -116 -177 -120
-259 -50 -31 26 -56 49 -56 51 0 2 33 71 74 154 71 143 73 150 51 150 -14 0
-33 -12 -47 -30 -117 -153 -182 -216 -264 -256 -64 -31 -93 -29 -114 11 -8 17
-15 31 -16 32 0 1 -35 -6 -77 -16 -42 -10 -77 -15 -77 -11 0 4 7 72 15 151 8
78 13 144 11 146 -2 2 -13 -4 -25 -14 -15 -13 -33 -56 -57 -143 -39 -136 -87
-249 -129 -305 -32 -42 -43 -44 -50 -10 -3 14 -7 36 -10 49 l-5 25 -86 -46
c-47 -25 -86 -44 -88 -42 -10 12 -37 190 -31 208 8 27 -6 27 -32 -1 -17 -19
-23 -46 -32 -152 -7 -72 -17 -138 -22 -148 -6 -11 -43 -34 -82 -52 -40 -19
-117 -55 -172 -82 -55 -26 -103 -48 -107 -49 -4 0 -36 42 -73 93 -36 51 -70
90 -75 87 -5 -3 8 -56 30 -118 22 -62 40 -120 40 -129 0 -9 -22 -43 -48 -75
-166 -200 -198 -262 -273 -545 -8 -32 -16 -39 -63 -57 -29 -11 -91 -27 -137
-36 -93 -17 -306 -73 -328 -85 -10 -5 6 -12 45 -20 42 -9 98 -10 194 -5 74 4
162 8 195 9 l60 1 6 -115 c11 -199 50 -300 166 -431 61 -69 133 -193 133 -229
0 -27 -331 -167 -406 -171 -14 -1 -13 -3 6 -9 44 -14 242 -9 363 9 l118 17 4
-20 c12 -48 54 -400 49 -408 -3 -4 1 -8 10 -8 8 0 38 -20 67 -45 29 -25 58
-45 64 -45 14 0 55 -42 55 -56 -1 -5 -18 -27 -39 -48 l-39 -39 -41 33 c-56 45
-73 74 -81 139 l-7 56 -2 -65 c-1 -36 -6 -83 -11 -105 -6 -22 -26 -115 -46
-207 -19 -92 -44 -193 -54 -223 -17 -50 -78 -144 -233 -358 -56 -77 -97 -168
-96 -210 0 -12 9 5 19 37 27 83 130 232 130 187 0 -5 -12 -34 -26 -65 -14 -31
-45 -111 -69 -179 -26 -75 -48 -122 -56 -122 -17 0 -19 -28 -12 -120 l6 -70
18 90 c20 106 43 185 92 311 56 146 70 168 155 236 43 35 121 110 172 168 52
58 98 107 102 108 13 6 9 -12 -7 -36 -20 -28 -86 -162 -137 -277 -48 -107 -98
-339 -98 -448 0 -96 23 -185 67 -269 40 -76 57 -88 126 -88 59 0 104 14 244
76 68 30 126 54 131 54 5 0 39 -71 76 -157 49 -113 65 -162 59 -173 -19 -30
-380 -282 -463 -322 -47 -23 -121 -64 -165 -91 -44 -28 -98 -58 -120 -68 l-40
-19 68 0 c47 0 67 4 67 13 0 14 48 47 231 158 164 100 237 138 285 147 37 7
204 87 204 97 0 3 -18 -4 -39 -15 -40 -20 -187 -80 -197 -80 -16 0 23 39 108
107 69 56 109 98 143 148 l46 70 -50 -55 c-27 -30 -51 -53 -53 -50 -11 14
-112 253 -129 302 -28 87 -38 233 -29 413 5 88 9 161 9 162 1 2 30 16 65 32
36 16 86 44 111 61 26 18 49 30 51 27 3 -2 16 -47 30 -98 14 -51 42 -134 64
-184 36 -84 40 -100 50 -237 l11 -148 -36 -72 c-42 -85 -38 -82 47 43 70 101
102 158 95 165 -2 2 -12 -14 -22 -36 -10 -21 -26 -46 -35 -55 -16 -15 -18 -12
-23 32 -4 26 -10 97 -13 156 -4 62 -12 114 -19 121 -19 19 -37 57 -30 64 4 4
13 -2 21 -12 12 -17 14 -18 14 -3 0 9 -27 69 -61 134 -36 69 -61 130 -61 148
0 16 20 69 45 116 25 48 51 106 59 130 13 45 129 181 143 167 4 -4 2 -58 -4
-120 -16 -150 -25 -528 -13 -508 5 8 12 58 14 111 4 71 10 106 26 135 11 21
26 57 33 79 17 60 168 365 180 365 14 0 181 -114 204 -139 10 -12 20 -37 21
-54 1 -18 37 -133 81 -257 44 -124 93 -263 109 -309 l29 -83 -40 -35 c-54 -47
-171 -123 -217 -141 -66 -26 -165 4 -202 61 -9 12 -30 71 -46 130 l-31 108 19
77 c11 42 23 86 27 97 3 11 -7 -8 -24 -43 -16 -34 -34 -62 -39 -62 -5 0 -23
46 -40 102 -17 57 -31 94 -31 82 -1 -11 13 -65 30 -120 72 -235 91 -306 81
-316 -6 -6 -28 44 -62 142 -29 83 -55 149 -57 147 -2 -2 26 -89 62 -193 36
-104 65 -200 66 -214 0 -14 3 -19 6 -12 7 19 31 14 43 -9 14 -25 69 -59 95
-58 11 0 14 3 8 6 -21 8 -15 30 9 37 35 9 36 8 40 -21 4 -37 21 -36 32 2 7 25
30 42 136 103 137 77 176 90 121 40 -32 -29 -35 -37 -39 -99 -5 -95 14 -268
37 -335 11 -31 48 -103 82 -160 48 -82 66 -104 83 -104 12 0 31 -6 42 -14 18
-14 16 -16 -29 -35 -27 -12 -54 -21 -62 -21 -7 0 -50 92 -101 215 -48 118 -89
213 -91 211 -6 -6 87 -248 132 -343 32 -68 40 -94 31 -103 -8 -8 -7 -10 7 -5
14 6 17 2 17 -21 0 -51 -90 -179 -121 -171 -20 5 -30 -28 -32 -115 -1 -31 -4
-58 -7 -60 -62 -50 -128 -98 -136 -98 -5 0 -32 29 -59 65 -42 56 -65 77 -65
60 0 -6 100 -140 138 -184 23 -28 33 -33 54 -28 23 6 25 10 19 34 -11 41 5 76
51 113 l41 33 -7 59 c-3 36 -2 68 5 80 6 11 44 52 84 92 82 80 167 133 183
113 5 -7 38 -64 72 -127 72 -134 78 -141 184 -278 118 -153 130 -143 18 15
-166 233 -201 290 -272 434 -78 160 -83 179 -145 514 -51 277 -71 362 -117
480 -37 97 -168 481 -168 493 0 5 37 -2 81 -15 48 -13 108 -23 146 -23 l65 0
-22 -35 c-21 -34 -18 -41 14 -29 8 3 12 12 10 19 -3 7 0 23 6 35 10 18 8 26
-9 44 -12 12 -21 25 -21 29 0 10 193 8 209 -2 19 -12 -18 -64 -59 -81 -40 -16
-33 -23 9 -9 17 6 36 20 42 30 5 10 13 19 18 19 5 0 16 -51 25 -112 30 -198
77 -411 93 -423 8 -6 32 -56 53 -112 21 -56 43 -110 50 -120 14 -22 17 -30
-51 156 -56 152 -57 161 -33 383 13 132 13 155 0 196 -16 54 -28 198 -19 242
8 40 25 38 79 -12 66 -61 102 -118 120 -190 16 -63 50 -112 86 -124 13 -4 18
-15 18 -38 0 -19 11 -49 25 -70 l25 -37 0 -505 c0 -278 4 -504 8 -502 5 2 222
126 483 277 261 150 596 343 744 429 149 85 329 190 401 233 72 44 134 79 138
79 3 0 5 -338 4 -752 l-3 -752 -52 -30 c-45 -25 -53 -35 -54 -61 -2 -30 -2
-30 -6 -2 -4 27 -5 27 -84 27 l-79 0 0 -30 0 -30 85 0 c99 0 49 -25 600 295
531 309 636 370 853 494 l202 116 0 791 c0 739 1 792 17 798 10 4 104 57 210
119 l193 112 0 37 c0 21 -2 38 -5 38 -5 0 -298 -168 -370 -212 -16 -10 -33
-18 -37 -18 -5 0 -8 535 -8 1190 0 655 -3 1190 -7 1190 -3 0 -97 -53 -207
-117 -111 -64 -309 -179 -441 -256 -132 -77 -292 -169 -355 -206 -63 -37 -180
-105 -260 -151 -80 -46 -155 -89 -167 -97 l-23 -13 0 -1198 0 -1197 -91 -52
c-50 -29 -95 -53 -100 -53 -6 0 -9 741 -8 1973 1 1084 1 2079 0 2210 l-1 237
-67 0 c-53 0 -77 -5 -108 -24z m-2875 -551 c0 -8 -4 -15 -10 -15 -5 0 -10 7
-10 15 0 8 5 15 10 15 6 0 10 -7 10 -15z m-15 -169 c-4 -79 -3 -159 1 -178 l9
-33 5 49 c5 47 6 48 55 67 28 10 51 19 51 19 1 0 13 -18 28 -40 14 -22 45 -49
67 -61 27 -13 38 -24 32 -30 -17 -17 -136 -40 -171 -34 -18 3 -68 0 -112 -6
-44 -7 -83 -9 -87 -6 -4 4 15 76 41 160 27 83 53 171 59 195 21 84 30 44 22
-102z m555 105 c0 -5 -7 -11 -15 -15 -15 -5 -20 5 -8 17 9 10 23 9 23 -2z
m-52 -73 c-71 -199 -70 -178 -11 -214 10 -7 15 -15 11 -19 -8 -8 -191 50 -195
62 -1 4 15 16 36 26 22 10 54 38 73 63 18 25 41 56 51 69 19 26 42 34 35 13z
m-958 -200 c24 -154 59 -262 58 -180 0 23 5 49 12 57 12 15 103 75 113 75 3 0
7 -14 9 -32 2 -25 14 -40 48 -66 25 -19 46 -37 47 -41 5 -12 -140 -83 -197
-97 -32 -7 -84 -25 -115 -39 -32 -14 -60 -24 -62 -22 -2 2 3 23 11 45 16 45
31 148 41 285 4 48 10 87 15 87 5 0 13 -33 20 -72z m845 -23 c92 -32 117 -51
135 -104 12 -39 10 -154 -3 -167 -10 -10 -89 9 -237 57 -69 22 -174 51 -234
65 -60 13 -114 28 -120 33 -6 5 -24 11 -41 13 -16 1 -28 8 -25 13 3 6 52 10
115 10 77 1 140 8 209 23 121 28 133 33 112 51 -19 16 -21 45 -3 38 6 -3 48
-18 92 -32z m385 28 c0 -4 -32 -40 -71 -79 l-72 -72 -48 36 c-27 20 -49 42
-49 49 0 16 5 16 39 -1 26 -14 32 -12 107 29 81 45 94 51 94 38z m-622 -218
c67 -21 112 -41 112 -49 0 -19 -150 -216 -183 -240 -24 -18 -48 -22 -151 -26
l-122 -5 -97 -87 c-53 -49 -100 -88 -103 -88 -3 0 -31 20 -62 43 -57 44 -94
67 -108 67 -6 0 57 -45 129 -93 39 -26 15 -45 -188 -145 -163 -80 -271 -124
-476 -193 -175 -58 -192 -60 -183 -21 39 182 140 377 270 521 55 61 62 57 63
-34 1 -62 -28 -124 -98 -215 -58 -75 -58 -75 -41 -65 8 5 85 63 170 129 96 75
187 136 240 162 47 23 114 63 149 88 l64 45 -47 12 c-25 6 -46 15 -46 20 0 15
82 51 201 89 65 21 139 52 170 72 30 20 63 41 74 47 32 19 140 5 263 -34z
m-693 -35 c7 -11 -41 -90 -55 -90 -6 0 -10 11 -10 24 0 13 -3 31 -6 39 -3 10
4 18 23 25 37 14 41 14 48 2z m1955 -32 l70 -41 0 -93 c0 -51 -4 -95 -8 -98
-5 -3 -100 29 -212 70 -112 41 -206 72 -209 67 -3 -5 -18 -27 -34 -50 -16 -26
-38 -45 -53 -49 -26 -7 -185 0 -292 13 l-53 6 6 -37 c4 -20 4 -51 1 -70 l-6
-33 -128 -12 c-240 -22 -322 -25 -322 -13 0 22 123 173 153 189 25 12 51 14
146 8 64 -4 121 -11 128 -17 8 -6 16 -6 25 2 55 48 237 170 256 170 12 0 50
-11 84 -25 34 -14 75 -25 92 -24 17 0 83 18 146 39 63 21 121 38 128 39 7 1
44 -18 82 -41z m-2060 -7 c0 -5 -21 -25 -47 -44 -55 -41 -91 -77 -107 -108 -6
-12 -15 -24 -21 -25 -13 -4 -62 59 -50 63 6 2 55 30 110 63 102 61 115 67 115
51z m1127 -27 c84 -15 158 -31 165 -35 9 -6 8 -13 -6 -28 -22 -24 -75 -27
-171 -10 -74 13 -131 12 -160 -4 -21 -11 -66 -65 -107 -127 -9 -14 -30 -39
-48 -57 -31 -31 -52 -38 -175 -58 -32 -5 -52 -19 -99 -68 l-59 -62 117 -3
c136 -3 175 9 214 68 21 31 30 36 110 52 48 10 146 21 219 24 72 4 137 10 144
15 8 4 15 36 17 74 l4 67 37 -6 c20 -3 45 -6 55 -6 18 0 19 -6 12 -107 -3 -59
-11 -112 -17 -118 -6 -6 -89 -10 -227 -10 -216 0 -217 0 -272 -27 -39 -19 -70
-46 -105 -89 -27 -34 -54 -67 -61 -74 -8 -7 -62 -14 -141 -18 -143 -8 -254
-30 -412 -82 -58 -19 -135 -41 -171 -50 -36 -8 -111 -28 -165 -45 -134 -41
-220 -61 -502 -115 -228 -43 -315 -52 -382 -39 -47 10 -38 20 29 33 79 16 370
104 595 181 346 119 538 204 690 305 77 51 175 139 175 156 0 5 13 15 29 24
22 11 51 13 123 9 85 -5 96 -3 133 18 22 13 68 59 103 103 104 130 120 147
139 142 10 -3 86 -18 170 -33z m-1381 -94 c77 -97 102 -117 141 -107 16 4 15
6 -4 12 -30 10 -29 31 5 83 29 42 97 101 119 102 10 0 10 -46 -2 -102 -4 -21
-1 -22 24 -7 18 12 92 5 90 -9 -1 -12 -91 -74 -118 -82 -39 -11 -222 -118
-252 -146 -38 -37 -67 -31 -33 7 26 28 18 95 -25 224 -46 135 -44 125 -32 125
5 0 44 -45 87 -100z m2165 -56 c217 -83 217 -83 218 -211 1 -102 -7 -116 -51
-92 -13 7 -27 12 -31 11 -4 -1 -98 41 -207 93 -110 52 -224 106 -255 119 -30
14 -55 30 -55 35 0 19 45 12 91 -14 70 -40 130 -67 136 -62 3 3 -14 17 -36 32
-23 14 -47 36 -53 50 -9 20 -6 29 23 64 19 22 37 41 40 41 4 0 85 -30 180 -66z
m219 -1072 c0 -384 -3 -701 -6 -705 -22 -22 -911 488 -1158 665 -71 51 -106
68 -106 53 0 -10 319 -221 495 -328 105 -63 237 -143 295 -178 58 -35 189
-104 292 -154 176 -84 188 -92 188 -117 0 -18 -5 -28 -15 -28 -8 0 -88 31
-177 69 -89 39 -164 69 -165 67 -3 -3 61 -32 295 -137 l62 -28 0 -84 c0 -46
-3 -86 -6 -90 -8 -8 -172 62 -313 133 -157 79 -245 143 -375 273 -61 60 -119
112 -130 117 -63 23 -70 22 -31 -5 142 -98 187 -158 260 -346 73 -190 83 -247
89 -531 3 -130 9 -243 12 -251 9 -25 -27 -36 -124 -38 -85 -1 -91 -3 -82 -20
26 -48 0 -38 -62 25 -52 51 -149 116 -175 116 -9 0 -10 -7 -2 -26 5 -15 7 -29
4 -32 -9 -9 -54 17 -68 40 -13 20 -106 356 -176 635 -36 142 -25 228 49 374
23 44 23 44 1 25 -11 -11 -24 -16 -27 -13 -6 6 -43 170 -44 195 0 23 17 12 94
-58 l76 -70 63 0 62 1 -39 14 c-107 38 -275 194 -331 308 -42 86 -52 161 -37
292 6 53 7 127 3 180 l-8 90 -2 -130 c-2 -139 -10 -205 -26 -208 -14 -3 -95
187 -102 239 -5 41 -3 48 28 80 30 31 31 40 5 35 -5 -1 -12 3 -16 9 -4 6 -12
-7 -19 -30 -8 -28 -17 -40 -31 -40 -24 0 -36 36 -19 58 37 48 132 152 139 152
4 0 12 -26 18 -57 19 -97 22 -101 16 -28 -3 39 -7 80 -10 92 -6 21 -7 21 -30
6 -34 -22 -30 -4 16 58 21 30 47 65 56 78 9 13 36 32 60 43 40 17 66 19 266
17 254 -2 241 -6 252 89 4 31 10 78 13 104 l5 47 349 -174 348 -175 1 -698z
m-1365 838 c-42 -43 -89 -60 -169 -60 -43 0 -56 3 -56 15 0 24 77 73 126 81
25 3 64 12 87 19 57 17 62 -4 12 -55z m-52 -263 c-20 -33 -96 -127 -102 -127
-8 0 -111 126 -111 135 0 3 50 5 110 5 89 0 109 -3 103 -13z m-256 -16 c27
-26 183 -263 183 -279 0 -4 10 -12 22 -17 14 -7 34 -39 57 -93 l35 -84 -28
-81 c-72 -214 -71 -212 -109 -215 -19 -2 -58 6 -87 17 -96 36 -62 17 90 -54
83 -37 150 -72 150 -77 0 -15 -29 -78 -35 -78 -12 0 -240 101 -256 113 -9 7
-26 28 -39 47 -26 42 -24 34 14 -47 28 -58 34 -64 85 -84 96 -39 285 -129 303
-145 15 -14 18 -14 30 5 25 40 38 24 20 -24 -10 -27 -21 -44 -29 -41 -6 3 -21
-11 -32 -29 l-20 -35 -83 36 c-46 20 -96 41 -111 46 -21 8 -36 28 -64 89 -20
44 -38 78 -40 76 -2 -3 20 -55 49 -117 l52 -113 -59 -114 c-33 -63 -65 -119
-71 -124 -10 -9 -207 71 -466 190 -26 11 -51 21 -57 21 -17 0 -18 22 -2 68 14
43 13 48 -7 85 -12 22 -21 42 -19 43 2 2 43 -1 92 -6 110 -12 285 -13 303 -2
8 5 -7 14 -43 26 -53 17 -301 138 -319 156 -6 6 -2 43 9 95 15 75 20 85 39 85
15 0 31 -17 55 -56 29 -48 32 -59 22 -81 -10 -23 -10 -24 11 -17 40 12 48 25
48 80 0 29 8 75 17 101 22 62 21 154 0 187 -21 32 -21 36 1 36 28 0 134 -143
216 -291 43 -78 46 -73 7 14 -65 145 -242 376 -400 521 -29 26 -50 50 -48 52
10 10 221 78 322 104 132 34 165 36 192 11z m60 -18 c37 -47 56 -83 49 -91 -4
-3 -13 3 -20 14 -8 10 -28 36 -45 58 -17 21 -31 43 -31 47 0 19 18 8 47 -28z
m198 -113 c-10 -11 -21 -17 -24 -14 -3 3 3 12 13 20 28 20 32 17 11 -6z m-671
-110 l109 -108 -27 -17 c-19 -12 -30 -15 -37 -8 -7 7 -24 7 -47 2 -21 -4 -56
-4 -85 3 -27 5 -51 8 -53 5 -3 -2 11 -8 31 -11 44 -9 45 -23 3 -29 -25 -3 -22
-4 15 -5 26 -1 47 -5 47 -10 0 -7 -36 -69 -106 -187 -14 -22 -32 -55 -41 -72
-9 -18 -22 -33 -29 -33 -25 0 -25 40 0 95 29 64 26 74 -4 15 -11 -22 -24 -40
-29 -40 -5 0 -19 12 -30 26 -33 42 -27 94 18 150 9 11 -1 3 -22 -19 -36 -36
-40 -37 -52 -20 -19 26 -59 112 -54 117 2 2 24 0 49 -4 25 -5 61 -9 80 -8 22
0 11 4 -30 10 -36 5 -78 16 -94 24 -16 8 -31 12 -33 10 -2 -2 15 -41 37 -87
44 -91 45 -98 28 -146 -16 -43 -29 -42 -61 5 -30 44 -82 104 -71 82 4 -8 16
-27 26 -42 36 -53 15 -52 -47 2 -79 68 -61 44 42 -55 54 -52 101 -95 104 -95
4 0 31 -18 60 -40 30 -22 59 -40 66 -40 7 0 22 -13 34 -29 12 -17 28 -27 35
-24 8 3 14 -1 14 -10 0 -9 13 -18 33 -22 47 -11 307 -136 301 -146 -2 -4 -62
-7 -132 -6 -109 2 -139 6 -207 29 -44 15 -101 33 -127 39 -27 6 -82 32 -123
57 -42 24 -78 42 -81 39 -3 -2 19 -19 48 -37 54 -33 88 -60 170 -136 44 -41
46 -46 37 -74 -6 -16 -14 -30 -17 -30 -3 0 -19 15 -34 33 -29 32 -29 18 0 -15
13 -16 13 -18 -1 -24 -12 -4 0 -24 51 -89 63 -78 123 -169 137 -206 8 -21 -48
-63 -73 -55 -10 3 -44 33 -76 65 -59 59 -59 60 -72 145 -9 62 -23 106 -50 160
-38 74 -40 102 -7 75 29 -24 9 3 -143 192 -78 97 -146 192 -152 210 -18 55
-32 148 -38 249 -6 81 -4 97 10 109 22 18 546 150 571 144 11 -3 69 -53 129
-113z m546 110 c0 -5 -4 -10 -10 -10 -5 0 -10 5 -10 10 0 6 5 10 10 10 6 0 10
-4 10 -10z m21 -43 c-1 -12 -15 -9 -19 4 -3 6 1 10 8 8 6 -3 11 -8 11 -12z
m-466 -278 c11 -17 -1 -21 -15 -4 -8 9 -8 15 -2 15 6 0 14 -5 17 -11z m-17
-123 c26 -64 23 -103 -8 -131 -24 -22 -37 -13 -51 35 -9 28 -18 40 -31 40 -10
0 -18 5 -18 12 0 20 62 109 74 105 6 -2 21 -29 34 -61z m688 -60 c13 -37 24
-74 24 -84 0 -28 -43 -122 -56 -122 -6 0 -32 12 -58 26 -53 30 -56 43 -30 135
18 62 70 137 86 121 5 -5 21 -40 34 -76z m-1048 -22 c18 -37 30 -69 27 -72
-12 -13 -80 33 -89 60 -10 27 4 78 22 78 4 0 22 -30 40 -66z m122 -94 c0 -35
-19 -41 -21 -7 -1 16 -2 18 -6 5 -6 -23 -20 -23 -33 1 -11 21 -2 29 38 30 18
1 22 -4 22 -29z m250 -31 c0 -5 -4 -9 -10 -9 -5 0 -10 7 -10 16 0 8 5 12 10 9
6 -3 10 -10 10 -16z m755 -71 c18 -73 18 -73 -5 -125 -12 -29 -24 -53 -26 -53
-2 0 -20 8 -40 17 -34 17 -36 20 -30 55 5 30 3 38 -9 38 -18 0 -20 16 -4 26 6
3 15 0 20 -7 5 -8 9 -9 9 -3 0 20 49 124 58 124 5 0 17 -33 27 -72z m-119
-104 c-3 -9 -6 -20 -6 -25 0 -5 -4 -9 -10 -9 -11 0 -14 33 -3 43 12 13 25 7
19 -9z m37 -60 c20 -8 23 -24 3 -24 -26 0 -46 12 -46 27 0 8 6 12 13 9 6 -3
20 -9 30 -12z m-873 -59 c0 -8 -4 -15 -9 -15 -5 0 -11 7 -15 15 -3 9 0 15 9
15 8 0 15 -7 15 -15z m1004 -1 c22 -59 -8 -154 -49 -154 -36 0 -39 16 -14 78
38 98 50 111 63 76z m-1281 -49 c9 -20 17 -38 17 -41 0 -28 -334 -76 -336 -48
0 10 263 121 292 123 6 1 18 -15 27 -34z m269 -130 c51 -143 54 -155 35 -155
-7 0 -27 28 -45 63 -17 34 -50 93 -72 131 -38 64 -39 69 -23 82 41 32 55 16
105 -121z m4 114 c3 -6 1 -16 -5 -22 -9 -9 -14 -8 -21 3 -5 8 -10 18 -10 23 0
11 28 8 36 -4z m844 -87 c124 -61 136 -76 102 -120 l-18 -24 -100 49 c-90 44
-100 51 -111 85 -12 36 -9 69 6 67 3 0 58 -26 121 -57z m-710 -55 c0 -10 -62
-87 -71 -87 -6 0 -39 118 -39 139 0 6 25 -1 55 -16 30 -15 55 -31 55 -36z
m570 -22 c14 -15 26 -44 31 -77 5 -29 22 -82 38 -118 31 -70 49 -160 32 -160
-6 0 -27 33 -46 73 -42 83 -85 132 -132 149 -18 7 -33 17 -33 22 0 19 65 136
76 136 6 0 21 -11 34 -25z m-356 -70 c111 -47 166 -75 165 -85 0 -8 -25 -35
-56 -60 -71 -58 -214 -210 -207 -221 4 -7 -133 -194 -230 -314 -44 -55 -39
-18 18 115 67 155 86 224 67 243 -13 12 -15 10 -56 -46 -12 -18 -15 -17 -54 9
-23 14 -41 29 -41 33 0 9 110 146 121 149 5 2 19 -17 30 -43 19 -43 19 -48 5
-64 -15 -16 -14 -18 6 -17 22 1 24 7 35 111 6 61 12 145 12 188 1 43 5 77 10
75 5 -1 83 -34 175 -73z m564 -28 c29 -16 32 -22 32 -62 0 -50 -9 -54 -71 -34
-59 20 -93 53 -106 100 -6 24 -15 52 -18 62 -7 17 44 -4 163 -66z m-763 11
c-4 -35 -9 -85 -10 -113 -1 -27 -7 -51 -13 -53 -10 -3 -39 82 -49 144 -4 26 0
35 28 57 19 15 38 27 43 27 5 0 5 -27 1 -62z m1543 38 c26 -13 58 -26 72 -30
14 -4 116 -51 227 -104 l202 -97 1 -312 c0 -189 -4 -314 -10 -318 -17 -11
-113 47 -167 101 -54 53 -103 140 -103 181 0 12 -13 32 -29 45 -32 25 -113
195 -152 319 -13 41 -43 107 -66 147 -60 102 -57 110 25 68z m-724 -31 c-7
-17 -20 -20 -28 -6 -7 10 3 21 20 21 8 0 11 -6 8 -15z m-1053 -101 c55 -48
102 -90 105 -96 3 -5 -11 -30 -32 -56 -21 -26 -39 -49 -40 -51 -2 -2 -19 6
-38 18 -59 37 -81 87 -100 229 -4 23 -3 42 0 42 4 0 51 -39 105 -86z m1092
-15 c50 -190 2 -408 -153 -699 -42 -80 -83 -162 -89 -182 -15 -44 -36 -52 -28
-10 4 15 20 86 36 158 42 182 80 394 100 554 l17 135 32 -3 c29 -3 32 -1 32
25 0 51 13 104 23 100 6 -2 20 -37 30 -78z m-945 52 c3 -8 -1 -12 -9 -9 -7 2
-15 10 -17 17 -3 8 1 12 9 9 7 -2 15 -10 17 -17z m-18 -28 c24 -31 23 -76 -2
-81 -9 -2 -33 11 -53 29 l-36 32 28 23 c36 29 37 29 63 -3z m630 -15 c46 -48
48 -56 18 -63 -79 -18 -138 -34 -112 -30 17 2 53 7 80 10 l49 7 43 -72 c23
-39 42 -75 42 -81 0 -5 5 -9 10 -9 6 0 10 -21 10 -46 0 -41 -2 -45 -22 -42
-17 2 -25 14 -34 48 -7 25 -12 41 -13 36 -1 -4 -20 14 -42 41 l-42 49 -23 -23
c-27 -27 -69 -30 -83 -5 -6 9 -11 13 -11 9 0 -5 48 -54 106 -109 75 -72 107
-110 112 -132 l6 -31 6 30 c3 17 12 31 23 33 29 6 21 -47 -15 -100 -40 -58
-58 -61 -59 -10 l0 37 -12 -35 c-12 -34 -14 -35 -61 -34 l-50 0 32 -15 c18 -8
32 -21 32 -28 0 -16 -12 -17 -28 -1 -9 9 -12 9 -12 -3 0 -22 -13 -36 -39 -44
-19 -6 -23 -4 -18 8 4 11 -7 15 -58 20 -39 3 -78 13 -100 25 -19 12 -35 17
-35 11 0 -5 13 -18 30 -27 40 -23 38 -40 -5 -48 -52 -9 -58 -29 -7 -20 53 8
54 -5 5 -56 -40 -41 -53 -47 -53 -23 0 8 -5 26 -12 40 -8 19 -19 25 -42 25
-44 0 -60 13 -54 44 4 18 1 26 -8 26 -8 0 -14 2 -14 5 0 11 53 85 61 85 16 0
10 -27 -13 -56 l-22 -29 27 24 c20 19 27 34 27 63 0 23 12 63 30 98 17 33 28
60 26 60 -2 0 -23 -33 -47 -72 -23 -40 -59 -98 -79 -128 -31 -46 -38 -67 -44
-125 -8 -92 -22 -186 -31 -207 -9 -23 -146 -79 -210 -85 -45 -5 -56 -2 -74 16
l-22 22 37 67 c97 176 172 290 322 490 177 236 226 291 316 358 76 57 102 57
156 2z m189 -37 c11 -7 13 -26 7 -92 -7 -83 -11 -98 -22 -86 -6 5 -33 153 -34
180 0 10 32 9 49 -2z m-175 -160 c19 -21 41 -90 31 -99 -3 -3 -24 13 -46 36
-30 31 -39 46 -34 62 8 25 27 26 49 1z m1046 -1 c0 -5 -4 -10 -10 -10 -5 0
-10 5 -10 10 0 6 5 10 10 10 6 0 10 -4 10 -10z m-1630 -41 c0 -13 -80 -200
-90 -212 -12 -13 -60 23 -60 45 0 10 9 29 21 41 11 12 42 48 67 79 46 57 62
69 62 47z m988 -120 c19 -68 37 -126 42 -129 10 -7 20 -79 12 -84 -4 -2 -34
16 -67 41 -33 24 -67 48 -75 53 -12 7 -11 25 9 130 14 72 28 119 34 117 6 -2
26 -59 45 -128z m688 -42 c-17 -82 -45 -162 -46 -129 0 19 30 215 35 231 4 11
8 12 17 3 10 -10 8 -34 -6 -105z m-1873 3 c37 -49 67 -92 67 -97 0 -5 -18 -26
-40 -48 l-40 -39 -31 30 c-43 40 -69 95 -69 144 0 40 23 101 38 100 4 -1 37
-41 75 -90z m1919 -2 c5 -35 -3 -88 -13 -88 -5 0 -9 25 -9 55 0 54 15 77 22
33z m35 -36 c1 -23 -3 -45 -8 -48 -15 -9 -22 3 -14 23 13 29 14 43 4 49 -14 8
-11 26 3 22 7 -3 14 -23 15 -46z m-789 -106 c77 -56 84 -86 10 -40 -67 41
-119 95 -90 94 4 -1 40 -25 80 -54z m-1221 -38 c28 -48 41 -79 37 -93 -8 -29
-39 -70 -55 -73 -18 -3 -69 87 -69 122 0 39 23 116 35 116 5 0 29 -33 52 -72z
m1933 42 c0 -11 -4 -20 -10 -20 -5 0 -10 9 -10 20 0 11 5 20 10 20 6 0 10 -9
10 -20z m-1810 -6 c0 -10 -42 -104 -47 -104 -3 0 -13 10 -23 23 -18 22 -18 22
13 55 27 28 57 42 57 26z m740 -8 c0 -14 -29 -31 -38 -21 -6 6 18 35 29 35 5
0 9 -6 9 -14z m1080 -111 c0 -60 -3 -75 -15 -75 -8 0 -15 9 -15 20 0 12 -12
32 -27 45 l-28 23 29 31 c47 49 56 42 56 -44z m-451 16 c62 -42 115 -97 106
-111 -12 -19 -58 -19 -126 3 -67 21 -103 47 -65 47 13 0 16 11 16 50 0 28 2
50 6 50 3 0 31 -18 63 -39z m-743 4 c8 -21 -32 -137 -79 -230 -66 -128 -160
-207 -277 -234 -22 -5 -42 -6 -45 -2 -2 4 30 38 72 76 62 56 193 206 193 220
0 2 -13 -1 -29 -6 -21 -7 -27 -15 -24 -28 3 -11 -2 -21 -13 -25 -24 -9 -29 0
-13 21 10 13 5 12 -21 -5 -121 -78 -262 -132 -346 -132 -81 0 -65 17 57 59 57
20 137 55 176 79 39 23 78 42 86 42 8 0 49 41 91 90 75 89 77 90 122 90 30 0
46 -5 50 -15z m-813 -64 c15 -27 27 -57 27 -68 0 -20 -202 -228 -212 -218 -3
4 11 37 32 74 47 83 86 174 95 224 4 20 12 37 19 37 6 0 23 -22 39 -49z m462
18 c5 -15 1 -28 -14 -42 l-21 -21 0 42 c0 46 23 60 35 21z m75 2 c14 -26 13
-71 -2 -71 -32 0 -63 62 -41 83 12 13 32 7 43 -12z m915 -11 c-3 -5 -10 -10
-16 -10 -5 0 -9 5 -9 10 0 6 7 10 16 10 8 0 12 -4 9 -10z m893 -30 l63 -30 -7
-47 c-7 -55 -20 -75 -34 -53 -6 9 -5 19 0 24 15 15 12 42 -7 57 -15 13 -15 12
-2 -8 9 -16 10 -26 3 -33 -14 -14 -35 -5 -57 26 -23 30 -14 48 16 33 19 -9 18
-7 -3 10 -14 11 -33 23 -42 27 -21 6 -24 24 -5 24 6 0 40 -13 75 -30z m-1847
-27 c5 -13 3 -28 -5 -38 -11 -15 -15 -16 -34 -4 -26 17 -27 26 -5 51 20 22 33
19 44 -9z m1524 -60 l-6 -28 14 24 c8 13 16 20 19 15 8 -13 -12 -278 -21 -287
-12 -12 -34 137 -27 183 4 27 3 39 -4 35 -11 -7 -13 9 -4 54 4 17 13 31 20 31
10 0 13 -8 9 -27z m-1605 -18 c0 -8 -4 -15 -10 -15 -5 0 -10 7 -10 15 0 8 5
15 10 15 6 0 10 -7 10 -15z m160 -52 c0 -15 -69 -55 -81 -47 -8 4 2 15 27 30
41 25 54 29 54 17z m1824 -48 c8 -31 -2 -54 -15 -34 -11 18 -11 59 0 59 5 0
12 -11 15 -25z m-1855 -12 c-1 -5 -23 -28 -50 -52 l-49 -44 0 31 c0 26 6 35
38 51 39 21 63 26 61 14z m-414 -37 c42 -18 78 -26 121 -26 l61 0 10 -45 c6
-28 7 -47 0 -54 -6 -6 -2 -13 11 -20 11 -6 37 -41 57 -77 l37 -66 -6 -137 c-4
-75 -11 -147 -17 -161 -18 -47 -119 -96 -212 -103 -65 -5 -70 -3 -102 25 -19
16 -47 55 -62 86 -28 57 -28 58 -27 250 1 106 0 191 -2 190 -1 -2 -8 -57 -14
-123 -15 -145 -4 -239 39 -331 49 -106 124 -141 243 -114 83 19 87 20 82 34
-5 13 35 46 56 46 20 0 10 -19 -17 -34 -16 -8 -24 -15 -20 -16 5 0 17 4 27 10
20 11 50 -14 34 -29 -26 -23 -200 -121 -215 -121 -10 0 -35 -10 -55 -22 -48
-28 -128 -31 -167 -5 -56 36 -106 185 -107 313 0 131 49 332 121 492 36 81 28
79 124 38z m303 -31 c3 -31 -21 -76 -33 -63 -4 4 -10 28 -13 53 -5 45 -4 47
19 43 18 -2 25 -10 27 -33z m-68 -30 c0 -52 -12 -58 -30 -15 -14 34 -8 60 15
60 11 0 15 -11 15 -45z m30 -110 c0 -8 -4 -15 -9 -15 -5 0 -11 7 -15 15 -3 9
0 15 9 15 8 0 15 -7 15 -15z m1269 -347 c5 -18 35 -151 66 -296 55 -258 62
-322 31 -322 -17 0 -122 221 -140 295 -29 116 -40 234 -25 279 27 86 50 100
68 44z m113 -780 c-15 -15 -24 -6 -16 16 5 12 10 14 17 7 8 -8 8 -14 -1 -23z"/>
<path d="M1574 3628 c-36 -41 -47 -58 -37 -58 5 0 24 18 42 40 33 42 29 57 -5
18z"/>
<path d="M965 3737 c10 -15 20 -25 23 -22 3 3 -5 16 -17 28 l-23 22 17 -28z"/>
<path d="M1681 3207 c-27 -10 -37 -22 -57 -71 -30 -73 -26 -84 6 -16 28 60 44
75 90 88 19 6 26 10 15 11 -11 0 -35 -5 -54 -12z"/>
<path d="M1585 3049 c-4 -6 -5 -12 -2 -15 2 -3 7 2 10 11 7 17 1 20 -8 4z"/>
<path d="M1565 3009 c-4 -6 -5 -12 -2 -15 2 -3 7 2 10 11 7 17 1 20 -8 4z"/>
<path d="M1732 2963 c7 -37 168 -108 168 -74 0 9 -148 91 -166 91 -3 0 -4 -8
-2 -17z m66 -32 c3 -8 -1 -12 -9 -9 -7 2 -15 10 -17 17 -3 8 1 12 9 9 7 -2 15
-10 17 -17z"/>
<path d="M5200 5321 c0 -6 5 -13 10 -16 6 -3 10 1 10 9 0 9 -4 16 -10 16 -5 0
-10 -4 -10 -9z"/>
<path d="M735 3010 c-3 -5 -1 -10 4 -10 6 0 11 5 11 10 0 6 -2 10 -4 10 -3 0
-8 -4 -11 -10z"/>
<path d="M2798 2483 c7 -3 16 -2 19 1 4 3 -2 6 -13 5 -11 0 -14 -3 -6 -6z"/>
<path d="M2758 2473 c7 -3 16 -2 19 1 4 3 -2 6 -13 5 -11 0 -14 -3 -6 -6z"/>
<path d="M2919 2363 c-13 -16 -12 -17 4 -4 16 13 21 21 13 21 -2 0 -10 -8 -17
-17z"/>
<path d="M2740 2366 c0 -2 7 -7 16 -10 8 -3 12 -2 9 4 -6 10 -25 14 -25 6z"/>
<path d="M6916 2069 l-26 -20 0 -166 0 -165 33 19 c31 18 32 22 37 97 4 66 8
81 29 97 13 10 27 19 32 19 16 0 25 -35 24 -87 -1 -29 0 -53 3 -53 2 0 17 8
33 17 30 18 30 18 27 103 l-3 85 -32 3 c-26 3 -39 -4 -72 -37 l-41 -41 0 75
c0 41 -4 75 -9 75 -4 0 -20 -9 -35 -21z"/>
<path d="M2862 2010 c0 -14 2 -19 5 -12 2 6 2 18 0 25 -3 6 -5 1 -5 -13z"/>
<path d="M563 1925 c0 -27 2 -38 4 -22 2 15 2 37 0 50 -2 12 -4 0 -4 -28z"/>
<path d="M2852 1940 c0 -14 2 -19 5 -12 2 6 2 18 0 25 -3 6 -5 1 -5 -13z"/>
<path d="M6778 1926 c-20 -15 -28 -31 -28 -53 0 -22 -7 -35 -25 -47 -14 -9
-25 -25 -25 -36 0 -17 5 -19 26 -14 25 7 26 6 24 -52 -2 -90 -4 -87 30 -69 29
15 30 17 30 95 0 70 2 79 20 85 13 4 20 15 20 31 0 21 -4 24 -19 19 -17 -5
-20 0 -23 29 l-3 34 -27 -22z"/>
<path d="M2841 1874 c0 -11 3 -14 6 -6 3 7 2 16 -1 19 -3 4 -6 -2 -5 -13z"/>
<path d="M2131 1698 c-1 -44 -3 -48 -25 -48 -39 0 -56 -25 -56 -81 0 -43 -3
-51 -24 -59 -29 -11 -40 -40 -32 -85 6 -28 3 -35 -14 -40 -32 -10 -53 -50 -46
-88 6 -31 3 -35 -29 -50 -31 -15 -35 -21 -35 -55 0 -44 25 -126 44 -141 8 -7
32 2 82 31 99 58 106 66 98 102 -6 26 -1 34 36 66 41 35 42 39 33 67 -12 34
-9 41 30 66 29 18 35 52 17 87 -8 15 -2 22 31 45 43 28 45 36 24 102 -6 17 -1
25 25 38 25 13 30 19 19 26 -8 5 -15 4 -17 -1 -4 -10 -104 -60 -121 -60 -5 0
-16 28 -24 63 l-15 62 -1 -47z m-11 -108 l31 -40 39 20 c52 27 62 25 58 -7 -2
-23 -15 -35 -73 -65 -38 -21 -73 -38 -76 -38 -8 0 -39 153 -32 163 9 14 22 6
53 -33z m-56 -141 c19 -32 22 -32 84 -7 28 11 34 11 42 -2 5 -8 10 -20 10 -26
0 -10 -158 -99 -165 -93 -11 13 -31 149 -22 158 14 14 31 4 51 -30z m-64 -124
c25 -40 35 -42 85 -18 31 15 37 15 45 3 19 -29 9 -41 -65 -77 -84 -42 -86 -42
-106 30 -10 39 -4 97 11 97 5 0 18 -16 30 -35z m-82 -113 c9 -10 22 -27 28
-38 10 -17 14 -18 45 -5 53 21 74 19 77 -6 3 -18 -8 -28 -67 -58 -39 -19 -75
-35 -80 -35 -11 0 -28 54 -38 118 -6 46 5 55 35 24z"/>
<path d="M1699 1423 c-13 -16 -12 -17 4 -4 16 13 21 21 13 21 -2 0 -10 -8 -17
-17z"/>
<path d="M2452 1160 c0 -14 2 -19 5 -12 2 6 2 18 0 25 -3 6 -5 1 -5 -13z"/>
<path d="M2462 1110 c0 -14 2 -19 5 -12 2 6 2 18 0 25 -3 6 -5 1 -5 -13z"/>
<path d="M2384 1106 c11 -9 24 -16 30 -16 12 0 7 5 -24 19 -24 11 -24 11 -6
-3z"/>
<path d="M2230 835 c0 -5 5 -17 10 -25 5 -8 10 -10 10 -5 0 6 -5 17 -10 25 -5
8 -10 11 -10 5z"/>
</g>
</svg>
