<svg height="300px" width="300px" fill="#000000" xmlns="http://www.w3.org/2000/svg" viewBox="0 0 185.5 185.3" x="0px" y="0px"><title>Asset 2</title><path d="M92.8,44.6a48.1,48.1,0,0,0-6.5,95.7V82.5L71.7,97.1a6.5,6.5,0,0,1-9.2-9.2L88.1,62.3h.1l.4-.3h.1l.4-.3h.1l.4-.3h.1l.5-.2h0l.6-.2h3.8l.6.2h0l.5.2h.1l.4.3h.1l.4.3h.1l.4.3h.1l25.6,25.6a6.5,6.5,0,0,1-9.2,9.2L99.2,82.5v57.8a48.1,48.1,0,0,0-6.5-95.7Z"/><path d="M92.7,30.1a6.5,6.5,0,0,1-6.5-6.5V6.5a6.5,6.5,0,0,1,13,0V23.6A6.5,6.5,0,0,1,92.7,30.1Z"/><path d="M60.6,18.5a3.5,3.5,0,0,1-3.2-2.2l-1.9-4.7A3.5,3.5,0,1,1,61.9,9l1.9,4.7a3.5,3.5,0,0,1-1.9,4.6Z"/><path d="M124.9,18.4l-1.3-.3a3.5,3.5,0,0,1-1.9-4.6l1.9-4.7a3.5,3.5,0,1,1,6.5,2.7l-1.9,4.7A3.5,3.5,0,0,1,124.9,18.4Z"/><path d="M170.3,63.9a3.5,3.5,0,0,1-1.3-6.7l4.7-1.9a3.5,3.5,0,0,1,2.7,6.5l-4.7,1.9Z"/><path d="M175,130.1l-1.3-.3-4.7-1.9a3.5,3.5,0,0,1,2.7-6.5l4.7,1.9a3.5,3.5,0,0,1-1.3,6.7Z"/><path d="M126.8,178.3a3.5,3.5,0,0,1-3.2-2.2l-1.9-4.7a3.5,3.5,0,1,1,6.5-2.7l1.9,4.7a3.5,3.5,0,0,1-1.9,4.6Z"/><path d="M58.7,178.3l-1.3-.3a3.5,3.5,0,0,1-1.9-4.6l1.9-4.7a3.5,3.5,0,1,1,6.5,2.7l-1.9,4.7A3.5,3.5,0,0,1,58.7,178.3Z"/><path d="M10.5,130.1a3.5,3.5,0,0,1-1.3-6.7l4.7-1.9a3.5,3.5,0,0,1,2.7,6.5l-4.7,1.9Z"/><path d="M15.1,63.9l-1.3-.3L9.1,61.7a3.5,3.5,0,0,1,2.7-6.5l4.7,1.9a3.5,3.5,0,0,1-1.3,6.7Z"/><path d="M141.7,50.2a6.5,6.5,0,0,1-4.6-11.1L149.2,27a6.5,6.5,0,0,1,9.2,9.2L146.3,48.3A6.5,6.5,0,0,1,141.7,50.2Z"/><path d="M161.9,99.1a6.5,6.5,0,0,1,0-13H179a6.5,6.5,0,0,1,0,13Z"/><path d="M153.7,160.1a6.5,6.5,0,0,1-4.6-1.9L137,146.1a6.5,6.5,0,1,1,9.2-9.2L158.3,149a6.5,6.5,0,0,1-4.6,11.1Z"/><path d="M92.7,185.3a6.5,6.5,0,0,1-6.5-6.5V161.7a6.5,6.5,0,0,1,13,0v17.1A6.5,6.5,0,0,1,92.7,185.3Z"/><path d="M31.7,160a6.5,6.5,0,0,1-4.6-11.1l12.1-12.1a6.5,6.5,0,0,1,9.2,9.2L36.3,158.1A6.5,6.5,0,0,1,31.7,160Z"/><path d="M6.5,99a6.5,6.5,0,0,1,0-13H23.6a6.5,6.5,0,0,1,0,13Z"/><path d="M43.9,50.1a6.5,6.5,0,0,1-4.6-1.9L27.2,36.1a6.5,6.5,0,1,1,9.2-9.2L48.5,39a6.5,6.5,0,0,1-4.6,11.1Z"/></svg>